<svg width="103" height="25" viewBox="0 0 103 25" fill="none" xmlns="http://www.w3.org/2000/svg">
<path d="M91.4454 23.7825H84.3345V0.132812H91.4454V11.7659C91.733 9.70454 92.3455 8.17583 93.283 7.17978C94.2205 6.18372 95.4988 5.68569 97.1181 5.68569C97.9863 5.68569 98.7347 5.82951 99.3632 6.11714C99.9917 6.39944 100.508 6.83888 100.913 7.43545C101.323 8.02669 101.627 8.78305 101.824 9.70454C102.021 10.6207 102.12 11.71 102.12 12.9723V23.7825H95.0088V14.9698C95.0088 13.8565 94.8623 13.0363 94.5693 12.5089C94.2817 11.9816 93.8343 11.718 93.2271 11.718C92.6199 11.718 92.1698 11.9843 91.8768 12.5169C91.5892 13.0443 91.4454 13.8619 91.4454 14.9698V23.7825Z" fill="#281F42"/>
<path d="M47.639 13.1C47.639 11.9495 47.8494 10.9162 48.2702 10C48.6909 9.08386 49.2928 8.30619 50.0758 7.66701C50.8642 7.02783 51.8229 6.53779 52.9521 6.19689C54.0814 5.85599 55.3544 5.68555 56.7713 5.68555C58.1774 5.68555 59.4292 5.85599 60.5264 6.19689C61.629 6.53779 62.5558 7.03315 63.3069 7.68299C64.0632 8.33282 64.6385 9.13446 65.0327 10.0879C65.4268 11.036 65.6239 12.1173 65.6239 13.3317V23.7823H58.513V19.6117C58.3426 20.3254 58.0736 20.9699 57.7061 21.5452C57.3439 22.1205 56.9018 22.6105 56.3798 23.0153C55.8631 23.4148 55.2745 23.7211 54.614 23.9341C53.9589 24.1525 53.2504 24.2617 52.4887 24.2617C51.6844 24.2617 50.952 24.1392 50.2916 23.8942C49.6311 23.6545 49.0665 23.3163 48.5977 22.8795C48.129 22.4374 47.7641 21.9074 47.5031 21.2895C47.2475 20.6663 47.1196 19.9766 47.1196 19.2202C47.1196 18.3466 47.2954 17.569 47.647 16.8872C48.0038 16.2054 48.5205 15.6328 49.197 15.1694C49.8788 14.7007 50.715 14.3464 51.7057 14.1067C52.7018 13.8617 53.8363 13.7392 55.1094 13.7392H58.513V13.3317C58.513 12.4742 58.3585 11.8243 58.0496 11.3822C57.746 10.9348 57.2586 10.7111 56.5875 10.7111C55.9323 10.7111 55.4556 10.9162 55.1573 11.3263C54.859 11.7311 54.7099 12.3224 54.7099 13.1H47.639ZM56.3877 16.9351C55.6953 16.9351 55.1733 17.0496 54.8218 17.2787C54.4702 17.5024 54.2944 17.8353 54.2944 18.2774C54.2944 18.6875 54.4382 19.0098 54.7259 19.2442C55.0135 19.4732 55.4077 19.5877 55.9084 19.5877C56.2546 19.5877 56.5848 19.5318 56.8991 19.4199C57.2134 19.3081 57.4903 19.1563 57.73 18.9645C57.9697 18.7728 58.1588 18.5517 58.2973 18.3014C58.4411 18.051 58.513 17.7874 58.513 17.5104V16.9351H56.3877Z" fill="#281F42"/>
<path d="M56.5 19.6328L55.5 15.6328L100.477 -3.69122e-05L56.5 19.6328Z" fill="#CE6265"/>
<path d="M55.1857 15.7155C56.2644 15.3689 57.4197 15.9625 57.7663 17.0412C58.1128 18.1199 57.5789 19.286 56.5002 19.6326C55.4215 19.9791 54.2065 19.3748 53.8599 18.2961C53.5134 17.2174 54.107 16.062 55.1857 15.7155Z" fill="#FAF25C"/>
<path d="M57.5 18.6327C57 18.2994 55.7 17.9327 54.5 19.1327" stroke="#BCAC5F" stroke-width="0.2"/>
<path d="M54.0402 16.8714C54.5653 17.1636 55.8905 17.4249 56.9905 16.1326" stroke="#BCAC5F" stroke-width="0.2"/>
<path d="M74.5583 5.68555C75.9965 5.68555 77.2828 5.83469 78.4174 6.13297C79.5519 6.43126 80.5107 6.86537 81.2937 7.4353C82.0767 7.99991 82.6759 8.69236 83.0914 9.51264C83.5068 10.3329 83.7146 11.2624 83.7146 12.3011H76.6436C76.6436 10.9268 76.0284 10.2397 74.798 10.2397C74.553 10.2397 74.3293 10.2663 74.1269 10.3196C73.9245 10.3675 73.7513 10.4395 73.6075 10.5353C73.4637 10.6259 73.3519 10.7377 73.272 10.8709C73.1921 10.9987 73.1521 11.1399 73.1521 11.2944C73.1521 11.534 73.2134 11.7311 73.3359 11.8856C73.4637 12.0401 73.6475 12.1732 73.8872 12.2851C74.1322 12.3916 74.4331 12.4848 74.79 12.5647C75.1522 12.6393 75.5677 12.7219 76.0364 12.8124L77.2189 13.0361C77.5545 13.1 77.9087 13.1693 78.2815 13.2439C78.6544 13.3184 79.0326 13.409 79.4161 13.5155C79.7996 13.622 80.1804 13.7472 80.5586 13.891C80.9421 14.0295 81.3043 14.1973 81.6452 14.3944C81.9914 14.5861 82.311 14.8098 82.604 15.0655C82.9023 15.3212 83.1606 15.6141 83.379 15.9444C83.5974 16.2746 83.7678 16.6475 83.8903 17.063C84.0128 17.4784 84.0741 17.9445 84.0741 18.4612C84.0741 19.3773 83.8717 20.1949 83.4669 20.914C83.0674 21.6331 82.4841 22.2403 81.7171 22.7357C80.9501 23.231 80.0126 23.6092 78.9047 23.8702C77.7968 24.1312 76.5344 24.2617 75.1176 24.2617C73.6155 24.2617 72.2812 24.1126 71.1147 23.8143C69.9482 23.5213 68.9681 23.0899 68.1745 22.52C67.3808 21.9447 66.7763 21.2389 66.3608 20.4027C65.9507 19.5611 65.7456 18.597 65.7456 17.5104H72.8165C72.8165 18.2135 73.003 18.7435 73.3758 19.1003C73.7487 19.4519 74.3026 19.6277 75.0377 19.6277C75.3253 19.6277 75.589 19.601 75.8287 19.5478C76.0737 19.4945 76.2841 19.4199 76.4599 19.3241C76.6356 19.2229 76.7715 19.1057 76.8673 18.9725C76.9632 18.8393 77.0112 18.6929 77.0112 18.5331C77.0112 18.3147 76.9632 18.1389 76.8673 18.0057C76.7715 17.8673 76.609 17.7501 76.38 17.6542C76.1509 17.5583 75.8473 17.4704 75.4691 17.3905C75.091 17.3106 74.6222 17.2201 74.0629 17.1189L72.8805 16.9032C72.4703 16.8286 72.0176 16.7407 71.5222 16.6395C71.0268 16.533 70.5261 16.3945 70.0201 16.224C69.5194 16.0483 69.0321 15.8325 68.558 15.5769C68.0893 15.3212 67.6711 15.0043 67.3036 14.6261C66.9414 14.2426 66.6484 13.7898 66.4247 13.2678C66.2063 12.7405 66.0972 12.1226 66.0972 11.4142C66.0972 10.5087 66.2862 9.70173 66.6644 8.99331C67.0479 8.28488 67.6019 7.68565 68.3263 7.19561C69.0507 6.70557 69.9376 6.33272 70.9869 6.07705C72.0362 5.81605 73.2267 5.68555 74.5583 5.68555Z" fill="#281F42"/>
<path d="M25.6997 23.7823H18.5889V6.16493H25.6997V11.7657C25.9874 9.70439 26.5999 8.17569 27.5374 7.17963C28.4749 6.18358 29.7532 5.68555 31.3725 5.68555C32.1821 5.68555 32.8852 5.80806 33.4818 6.05308C34.0837 6.29809 34.587 6.67628 34.9918 7.18762C35.402 7.69897 35.7189 8.3488 35.9426 9.13712C36.1663 9.92544 36.3022 10.8602 36.3501 11.9415C36.6271 9.82158 37.2343 8.25026 38.1718 7.22757C39.1092 6.19955 40.4009 5.68555 42.0468 5.68555C42.915 5.68555 43.6634 5.82936 44.2919 6.11699C44.9204 6.3993 45.4371 6.83874 45.8419 7.4353C46.2521 8.02655 46.5557 8.78291 46.7527 9.70439C46.9498 10.6206 47.0484 11.7098 47.0484 12.9722V23.7823H39.9375V14.9696C39.9375 13.8564 39.791 13.0361 39.4981 12.5088C39.2104 11.9815 38.763 11.7178 38.1558 11.7178C37.5486 11.7178 37.0985 11.9841 36.8055 12.5168C36.5179 13.0441 36.3741 13.8617 36.3741 14.9696V23.7823H29.2632V14.9696C29.2632 13.8564 29.1167 13.0361 28.8237 12.5088C28.5361 11.9815 28.0887 11.7178 27.4815 11.7178C26.8742 11.7178 26.4242 11.9841 26.1312 12.5168C25.8436 13.0441 25.6997 13.8617 25.6997 14.9696V23.7823Z" fill="#281F42"/>
<path d="M8.8127 5.68555C10.2509 5.68555 11.5372 5.83469 12.6717 6.13297C13.8063 6.43126 14.7651 6.86537 15.5481 7.4353C16.3311 7.99991 16.9303 8.69236 17.3458 9.51264C17.7612 10.3329 17.969 11.2624 17.969 12.3011H10.898C10.898 10.9268 10.2828 10.2397 9.05239 10.2397C8.80737 10.2397 8.58366 10.2663 8.38125 10.3196C8.17884 10.3675 8.00573 10.4395 7.86192 10.5353C7.7181 10.6259 7.60625 10.7377 7.52635 10.8709C7.44645 10.9987 7.4065 11.1399 7.4065 11.2944C7.4065 11.534 7.46776 11.7311 7.59027 11.8856C7.7181 12.0401 7.90187 12.1732 8.14156 12.2851C8.38658 12.3916 8.68753 12.4848 9.0444 12.5647C9.4066 12.6393 9.82207 12.7219 10.2908 12.8124L11.4733 13.0361C11.8089 13.1 12.1631 13.1693 12.5359 13.2439C12.9088 13.3184 13.287 13.409 13.6705 13.5155C14.054 13.622 14.4348 13.7472 14.813 13.891C15.1965 14.0295 15.5587 14.1973 15.8996 14.3944C16.2458 14.5861 16.5654 14.8098 16.8584 15.0655C17.1567 15.3212 17.415 15.6141 17.6334 15.9444C17.8518 16.2746 18.0222 16.6475 18.1447 17.063C18.2672 17.4784 18.3285 17.9445 18.3285 18.4612C18.3285 19.3773 18.1261 20.1949 17.7213 20.914C17.3218 21.6331 16.7385 22.2403 15.9715 22.7357C15.2045 23.231 14.267 23.6092 13.1591 23.8702C12.0512 24.1312 10.7888 24.2617 9.37198 24.2617C7.86991 24.2617 6.53562 24.1126 5.36911 23.8143C4.20261 23.5213 3.22253 23.0899 2.42889 22.52C1.63524 21.9447 1.03068 21.2389 0.615211 20.4027C0.20507 19.5611 0 18.597 0 17.5104H7.07093C7.07093 18.2135 7.25736 18.7435 7.63021 19.1003C8.00307 19.4519 8.55703 19.6277 9.29208 19.6277C9.57972 19.6277 9.84338 19.601 10.0831 19.5478C10.3281 19.4945 10.5385 19.4199 10.7143 19.3241C10.89 19.2229 11.0259 19.1057 11.1217 18.9725C11.2176 18.8393 11.2656 18.6929 11.2656 18.5331C11.2656 18.3147 11.2176 18.1389 11.1217 18.0057C11.0259 17.8673 10.8634 17.7501 10.6344 17.6542C10.4053 17.5583 10.1017 17.4704 9.72353 17.3905C9.34535 17.3106 8.87662 17.2201 8.31733 17.1189L7.13485 16.9032C6.72471 16.8286 6.27196 16.7407 5.77659 16.6395C5.28123 16.533 4.78054 16.3945 4.27452 16.224C3.77383 16.0483 3.28645 15.8325 2.81239 15.5769C2.34366 15.3212 1.92553 15.0043 1.558 14.6261C1.1958 14.2426 0.902842 13.7898 0.679129 13.2678C0.460743 12.7405 0.351549 12.1226 0.351549 11.4142C0.351549 10.5087 0.54064 9.70173 0.918822 8.99331C1.30233 8.28488 1.85629 7.68565 2.58069 7.19561C3.3051 6.70557 4.19196 6.33272 5.24128 6.07705C6.2906 5.81605 7.48107 5.68555 8.8127 5.68555Z" fill="#281F42"/>
</svg>
