<svg width="192" height="46" viewBox="0 0 192 46" fill="none" xmlns="http://www.w3.org/2000/svg">
<path d="M171.483 44.5981H158.148V0.249023H171.483V22.064C172.023 18.1984 173.171 15.3317 174.929 13.4639C176.687 11.596 179.084 10.6621 182.121 10.6621C183.749 10.6621 185.152 10.9318 186.331 11.4711C187.51 12.0005 188.479 12.8246 189.238 13.9433C190.007 15.052 190.576 16.4704 190.946 18.1984C191.315 19.9165 191.5 21.9591 191.5 24.3264V44.5981H178.165V28.0721C178.165 25.9845 177.891 24.4463 177.341 23.4574C176.802 22.4685 175.963 21.9741 174.824 21.9741C173.686 21.9741 172.842 22.4735 172.292 23.4724C171.753 24.4612 171.483 25.9945 171.483 28.0721V44.5981Z" fill="#F7F4FF"/>
<path d="M89.3352 24.5662C89.3352 22.4086 89.7298 20.4709 90.5189 18.7528C91.308 17.0348 92.4367 15.5765 93.905 14.3778C95.3833 13.1792 97.1812 12.2603 99.2988 11.621C101.416 10.9817 103.804 10.6621 106.461 10.6621C109.098 10.6621 111.445 10.9817 113.502 11.621C115.57 12.2603 117.308 13.1892 118.717 14.4078C120.135 15.6264 121.214 17.1297 121.953 18.9176C122.692 20.6956 123.062 22.7233 123.062 25.0007V44.5982H109.727V36.7772C109.407 38.1156 108.903 39.3242 108.214 40.403C107.534 41.4818 106.705 42.4007 105.726 43.1598C104.758 43.909 103.654 44.4833 102.415 44.8829C101.187 45.2924 99.8581 45.4971 98.4298 45.4971C96.9215 45.4971 95.5481 45.2674 94.3095 44.8079C93.0709 44.3585 92.0121 43.7242 91.1331 42.9051C90.2542 42.0761 89.5699 41.0822 89.0805 39.9235C88.6011 38.7549 88.3613 37.4614 88.3613 36.043C88.3613 34.4049 88.6909 32.9465 89.3502 31.668C90.0194 30.3895 90.9883 29.3157 92.2569 28.4467C93.5354 27.5677 95.1036 26.9035 96.9615 26.454C98.8293 25.9945 100.957 25.7648 103.344 25.7648H109.727V25.0007C109.727 23.3925 109.437 22.1739 108.858 21.3449C108.288 20.5058 107.375 20.0863 106.116 20.0863C104.887 20.0863 103.993 20.4709 103.434 21.24C102.875 21.9991 102.595 23.1078 102.595 24.5662H89.3352ZM105.741 31.7579C104.443 31.7579 103.464 31.9727 102.805 32.4022C102.146 32.8217 101.816 33.446 101.816 34.275C101.816 35.0441 102.086 35.6484 102.625 36.0879C103.164 36.5175 103.903 36.7322 104.842 36.7322C105.492 36.7322 106.111 36.6273 106.7 36.4176C107.29 36.2078 107.809 35.9231 108.259 35.5635C108.708 35.204 109.063 34.7894 109.322 34.32C109.592 33.8505 109.727 33.3561 109.727 32.8367V31.7579H105.741Z" fill="#F7F4FF"/>
<path d="M105.952 36.8164L104.077 29.3154L188.421 -0.000159786L105.952 36.8164Z" fill="#CE6265"/>
<path d="M103.487 29.4706C105.51 28.8208 107.676 29.9338 108.326 31.9567C108.976 33.9795 107.975 36.1663 105.952 36.8161C103.929 37.466 101.65 36.3328 101.001 34.3099C100.351 32.2871 101.464 30.1204 103.487 29.4706Z" fill="#D7CE1A"/>
<path d="M107.827 34.4504C106.89 33.8253 104.452 33.1377 102.201 35.388" stroke="#BCAC5F" stroke-width="0.375051"/>
<path d="M101.339 31.1468C102.324 31.6948 104.809 32.1849 106.871 29.7615" stroke="#BCAC5F" stroke-width="0.375051"/>
<path d="M139.816 10.6621C142.512 10.6621 144.925 10.9418 147.052 11.5011C149.18 12.0605 150.978 12.8746 152.446 13.9433C153.914 15.0021 155.038 16.3006 155.817 17.8389C156.596 19.3771 156.986 21.1201 156.986 23.0679H143.726C143.726 20.4908 142.572 19.2023 140.265 19.2023C139.806 19.2023 139.386 19.2523 139.007 19.3521C138.627 19.442 138.302 19.5769 138.033 19.7567C137.763 19.9265 137.553 20.1362 137.403 20.386C137.254 20.6257 137.179 20.8904 137.179 21.18C137.179 21.6295 137.293 21.9991 137.523 22.2888C137.763 22.5784 138.108 22.8282 138.557 23.0379C139.017 23.2377 139.581 23.4125 140.25 23.5623C140.929 23.7022 141.708 23.857 142.587 24.0268L144.805 24.4463C145.434 24.5662 146.098 24.696 146.798 24.8359C147.497 24.9757 148.206 25.1455 148.925 25.3453C149.644 25.545 150.359 25.7798 151.068 26.0495C151.787 26.3092 152.466 26.6238 153.105 26.9934C153.755 27.353 154.354 27.7725 154.903 28.2519C155.463 28.7314 155.947 29.2808 156.357 29.9C156.766 30.5193 157.086 31.2185 157.316 31.9976C157.545 32.7767 157.66 33.6507 157.66 34.6196C157.66 36.3377 157.281 37.8709 156.521 39.2194C155.772 40.5678 154.679 41.7065 153.24 42.6354C151.802 43.5644 150.044 44.2736 147.966 44.763C145.889 45.2524 143.521 45.4971 140.864 45.4971C138.048 45.4971 135.545 45.2175 133.358 44.6581C131.171 44.1087 129.333 43.2997 127.844 42.2309C126.356 41.1521 125.222 39.8287 124.443 38.2605C123.674 36.6823 123.29 34.8743 123.29 32.8367H136.549C136.549 34.1552 136.899 35.149 137.598 35.8183C138.297 36.4775 139.336 36.8071 140.715 36.8071C141.254 36.8071 141.748 36.7572 142.198 36.6573C142.657 36.5574 143.052 36.4176 143.381 36.2378C143.711 36.048 143.966 35.8282 144.146 35.5785C144.325 35.3288 144.415 35.0541 144.415 34.7545C144.415 34.3449 144.325 34.0153 144.146 33.7656C143.966 33.5059 143.661 33.2862 143.232 33.1064C142.802 32.9266 142.233 32.7618 141.524 32.6119C140.814 32.4621 139.935 32.2923 138.887 32.1025L136.669 31.698C135.9 31.5581 135.051 31.3933 134.122 31.2035C133.193 31.0038 132.254 30.7441 131.305 30.4244C130.366 30.0948 129.452 29.6903 128.564 29.2108C127.685 28.7314 126.9 28.1371 126.211 27.4279C125.532 26.7087 124.983 25.8597 124.563 24.8808C124.154 23.8919 123.949 22.7333 123.949 21.4048C123.949 19.7067 124.303 18.1935 125.013 16.865C125.732 15.5365 126.771 14.4128 128.129 13.4939C129.487 12.5749 131.151 11.8757 133.118 11.3963C135.086 10.9068 137.318 10.6621 139.816 10.6621Z" fill="#F7F4FF"/>
<path d="M48.1931 44.5982H34.8584V11.5611H48.1931V22.064C48.7325 18.1985 49.8812 15.3318 51.6391 13.4639C53.3971 11.596 55.7944 10.6621 58.8309 10.6621C60.3492 10.6621 61.6676 10.8918 62.7864 11.3513C63.9151 11.8108 64.859 12.52 65.6181 13.4789C66.3872 14.4378 66.9815 15.6564 67.4011 17.1347C67.8206 18.613 68.0753 20.366 68.1652 22.3937C68.6846 18.4182 69.8233 15.4716 71.5813 13.5538C73.3393 11.626 75.7615 10.6621 78.8479 10.6621C80.4761 10.6621 81.8795 10.9318 83.0581 11.4712C84.2368 12.0006 85.2056 12.8246 85.9648 13.9433C86.7339 15.0521 87.3032 16.4704 87.6728 18.1985C88.0424 19.9165 88.2272 21.9592 88.2272 24.3264V44.5982H74.8925V28.0721C74.8925 25.9845 74.6178 24.4463 74.0684 23.4574C73.529 22.4686 72.69 21.9741 71.5513 21.9741C70.4126 21.9741 69.5686 22.4736 69.0192 23.4724C68.4798 24.4613 68.2101 25.9945 68.2101 28.0721V44.5982H54.8754V28.0721C54.8754 25.9845 54.6008 24.4463 54.0514 23.4574C53.512 22.4686 52.673 21.9741 51.5343 21.9741C50.3956 21.9741 49.5515 22.4736 49.0022 23.4724C48.4628 24.4613 48.1931 25.9945 48.1931 28.0721V44.5982Z" fill="#F7F4FF"/>
<path d="M16.526 10.6621C19.2229 10.6621 21.6352 10.9418 23.7627 11.5011C25.8903 12.0605 27.6882 12.8746 29.1566 13.9433C30.6249 15.0021 31.7486 16.3006 32.5277 17.8389C33.3068 19.3771 33.6963 21.1201 33.6963 23.0679H20.4366C20.4366 20.4908 19.2829 19.2023 16.9755 19.2023C16.5161 19.2023 16.0965 19.2523 15.717 19.3521C15.3374 19.442 15.0128 19.5769 14.7431 19.7567C14.4734 19.9265 14.2636 20.1362 14.1138 20.386C13.964 20.6257 13.8891 20.8904 13.8891 21.18C13.8891 21.6295 14.0039 21.9991 14.2337 22.2888C14.4734 22.5784 14.818 22.8282 15.2675 23.0379C15.727 23.2377 16.2913 23.4125 16.9605 23.5623C17.6398 23.7022 18.4189 23.857 19.2979 24.0268L21.5153 24.4463C22.1446 24.5662 22.8088 24.696 23.508 24.8359C24.2072 24.9757 24.9164 25.1455 25.6356 25.3453C26.3548 25.545 27.0689 25.7798 27.7781 26.0495C28.4973 26.3092 29.1765 26.6238 29.8158 26.9934C30.4651 27.353 31.0644 27.7725 31.6137 28.2519C32.1731 28.7314 32.6575 29.2808 33.0671 29.9C33.4766 30.5193 33.7962 31.2185 34.026 31.9976C34.2557 32.7767 34.3706 33.6507 34.3706 34.6196C34.3706 36.3377 33.991 37.8709 33.2319 39.2194C32.4827 40.5678 31.389 41.7065 29.9506 42.6354C28.5123 43.5644 26.7543 44.2736 24.6767 44.763C22.5991 45.2524 20.2318 45.4971 17.5748 45.4971C14.7581 45.4971 12.2559 45.2175 10.0685 44.6581C7.88096 44.1087 6.04307 43.2997 4.55478 42.2309C3.06648 41.1521 1.93278 39.8287 1.15368 38.2605C0.384559 36.6823 0 34.8743 0 32.8367H13.2598C13.2598 34.1552 13.6094 35.149 14.3086 35.8183C15.0078 36.4775 16.0466 36.8071 17.425 36.8071C17.9644 36.8071 18.4588 36.7572 18.9083 36.6573C19.3678 36.5574 19.7623 36.4176 20.092 36.2378C20.4216 36.048 20.6763 35.8282 20.8561 35.5785C21.0359 35.3288 21.1258 35.0541 21.1258 34.7545C21.1258 34.3449 21.0359 34.0153 20.8561 33.7656C20.6763 33.5059 20.3716 33.2862 19.9421 33.1064C19.5126 32.9266 18.9433 32.7618 18.2341 32.6119C17.5249 32.4621 16.6459 32.2923 15.5971 32.1025L13.3797 31.698C12.6105 31.5581 11.7615 31.3933 10.8326 31.2035C9.90364 31.0038 8.96472 30.7441 8.0158 30.4244C7.07688 30.0948 6.16293 29.6903 5.27395 29.2108C4.39496 28.7314 3.61086 28.1371 2.92165 27.4279C2.24243 26.7087 1.69306 25.8597 1.27354 24.8808C0.864009 23.8919 0.659244 22.7333 0.659244 21.4048C0.659244 19.7067 1.01384 18.1935 1.72302 16.865C2.4422 15.5365 3.48101 14.4128 4.83945 13.4939C6.19789 12.5749 7.86098 11.8757 9.82873 11.3963C11.7965 10.9068 14.0289 10.6621 16.526 10.6621Z" fill="#F7F4FF"/>
</svg>
