<svg width="96" height="96" viewBox="0 0 96 96" fill="none" xmlns="http://www.w3.org/2000/svg">
<g clip-path="url(#clip0_516_4894)">
<rect width="96" height="96" rx="48" fill="#E8E8E8"/>
<path d="M60.8986 62.6153C74.5096 78.7692 69.9726 94.923 45.0192 118H54.0932M104 55.6914C54.0932 37.2305 67.7041 76.4615 29.1397 69.5394L24.8337 53.1931M72.2411 53.3845C83.5836 69.5384 90.3891 81.0768 85.8521 118H94.926M24.8337 53.1931C29.2163 51.9985 32.033 44.8597 30.0759 37.4295C28.1188 29.9993 22.9536 28.2218 18.5714 29.4163C14.1892 30.6108 10.5895 34.7785 12.5465 42.2082C14.5035 49.638 20.4512 54.3877 24.8337 53.1931ZM65.4356 37.2306C65.4355 42.3286 61.3729 46.4615 56.3615 46.4616C51.35 46.4617 47.2876 42.329 47.2877 37.231C47.2878 32.133 51.3504 28.0001 56.3618 28C61.3733 27.9999 65.4357 32.1326 65.4356 37.2306Z" stroke="#281F42" stroke-width="4" stroke-linecap="round" stroke-linejoin="round"/>
<path d="M30.0759 37.4293C32.033 44.8595 29.2163 51.9982 24.8337 53.1928C20.4512 54.3874 14.5035 49.6377 12.5465 42.208C10.5895 34.7782 14.1892 30.6105 18.5714 29.416C22.9536 28.2215 28.1188 29.9991 30.0759 37.4293Z" fill="#11F289" stroke="#281F42" stroke-width="4" stroke-linecap="round" stroke-linejoin="round"/>
</g>
<defs>
<clipPath id="clip0_516_4894">
<rect width="96" height="96" rx="48" fill="white"/>
</clipPath>
</defs>
</svg>
