<svg width="32" height="32" viewBox="0 0 32 32" fill="none" xmlns="http://www.w3.org/2000/svg">
<path d="M6.50007 14.5C8.59653 8.25463 11.0882 6.67491 17.0001 5.99998C20.0001 7.99997 17.0001 14.5 25.5001 17.5C25.0001 20 21.8527 25.0432 18.5001 25.5C16.0001 17.5 12.0001 17.5 6.50007 14.5Z" fill="#11F289"/>
<path d="M17.003 6.04968C16.6731 6.01682 16.3385 6 16 6C11.2119 6 7.20985 9.36506 6.22967 13.8592M17.003 6.04968C22.0549 6.5528 26 10.8157 26 16C26 16.1934 25.9945 16.3854 25.9837 16.5761M17.003 6.04968C20.1885 10.4503 19.4214 16.4953 25.9837 16.5761M25.9837 16.5761C25.7251 21.1287 22.4211 24.8664 18.0769 25.784M18.0769 25.784C17.4069 25.9256 16.7121 26 16 26C10.4772 26 6 21.5228 6 16C6 15.2652 6.07925 14.5489 6.22967 13.8592M18.0769 25.784C18.0562 16.8104 10.6391 18.4561 6.22967 13.8592" stroke="#281F42" stroke-width="2" stroke-linecap="round" stroke-linejoin="round"/>
</svg>
