<svg width="16" height="16" viewBox="0 0 16 16" fill="none" xmlns="http://www.w3.org/2000/svg">
<path d="M8.60181 2.02981C8.40388 2.01009 8.20312 2 8 2C5.12717 2 2.72591 4.01904 2.1378 6.71553M8.60181 2.02981C11.6329 2.33168 14 4.88941 14 8C14 8.11602 13.9967 8.23127 13.9902 8.34566M8.60181 2.02981C10.5131 4.67019 10.0529 8.29719 13.9902 8.34566M13.9902 8.34566C13.8351 11.0772 11.8526 13.3199 9.24613 13.8704M9.24613 13.8704C8.84412 13.9553 8.42728 14 8 14C4.68629 14 2 11.3137 2 8C2 7.55912 2.04755 7.12935 2.1378 6.71553M9.24613 13.8704C9.23375 8.48622 4.78347 9.47365 2.1378 6.71553" stroke="#281F42" stroke-linecap="round" stroke-linejoin="round"/>
</svg>
