<svg width="32" height="32" viewBox="0 0 32 32" fill="none" xmlns="http://www.w3.org/2000/svg">
<path d="M18.4605 13.5711L22.6667 4ZM12.8695 13.7834L8 4ZM16.7566 13.121L12.3267 4ZM18.56 4L17.3867 6.83336ZM9.12821 19.8668C9.12821 23.6224 12.1589 26.6669 15.8974 26.6669C19.636 26.6669 22.6667 23.6224 22.6667 19.8668C22.6667 16.1112 19.636 13.0667 15.8974 13.0667C12.1589 13.0667 9.12821 16.1112 9.12821 19.8668Z" fill="#11F289"/>
<path d="M18.4605 13.5711L22.6667 4M12.8695 13.7834L8 4M16.7566 13.121L12.3267 4M18.56 4L17.3867 6.83336M9.12821 19.8668C9.12821 23.6224 12.1589 26.6669 15.8974 26.6669C19.636 26.6669 22.6667 23.6224 22.6667 19.8668C22.6667 16.1112 19.636 13.0667 15.8974 13.0667C12.1589 13.0667 9.12821 16.1112 9.12821 19.8668Z" stroke="#281F42" stroke-width="2" stroke-linecap="round" stroke-linejoin="round"/>
</svg>
