<svg width="32" height="32" viewBox="0 0 32 32" fill="none" xmlns="http://www.w3.org/2000/svg">
<path d="M16 24.5607H25M7 24.5607H8.67454C9.16372 24.5607 9.40832 24.5607 9.63849 24.5054C9.84256 24.4564 10.0377 24.3756 10.2166 24.2659C10.4184 24.1422 10.5914 23.9693 10.9373 23.6234L23.5 11.0607C24.3285 10.2322 24.3285 8.88908 23.5 8.06065C22.6716 7.23222 21.3285 7.23222 20.5 8.06065L7.93726 20.6234C7.59136 20.9693 7.4184 21.1422 7.29472 21.3441C7.18506 21.523 7.10425 21.7181 7.05526 21.9222C7 22.1524 7 22.397 7 22.8861V24.5607Z" stroke="#281F42" stroke-width="2" stroke-linecap="round" stroke-linejoin="round"/>
</svg>
