<svg width="32" height="32" viewBox="0 0 32 32" fill="none" xmlns="http://www.w3.org/2000/svg">
<path d="M28.35 23.5L19.7143 16M12.2857 16L3.65005 23.5M3 9.75L13.6144 16.8943C14.4739 17.4728 14.9037 17.7621 15.3711 17.8741C15.7841 17.9731 16.2159 17.9731 16.6289 17.8741C17.0963 17.7621 17.5261 17.4728 18.3856 16.8943L29 9.75M9.24 26H22.76C24.9442 26 26.0363 26 26.8706 25.5913C27.6044 25.2317 28.201 24.6581 28.5749 23.9525C29 23.1503 29 22.1002 29 20V12C29 9.8998 29 8.8497 28.5749 8.04754C28.201 7.34193 27.6044 6.76825 26.8706 6.40873C26.0363 6 24.9442 6 22.76 6H9.24C7.0558 6 5.96369 6 5.12944 6.40873C4.3956 6.76825 3.79898 7.34193 3.42507 8.04754C3 8.8497 3 9.8998 3 12V20C3 22.1002 3 23.1503 3.42507 23.9525C3.79898 24.6581 4.3956 25.2317 5.12944 25.5913C5.96369 26 7.0558 26 9.24 26Z" stroke="#281F42" stroke-width="2" stroke-linecap="round" stroke-linejoin="round"/>
</svg>
