<svg width="32" height="32" viewBox="0 0 32 32" fill="none" xmlns="http://www.w3.org/2000/svg">
<path d="M19.375 16C19.375 20.875 25.375 20.875 25.375 16C25.375 10.8223 21.1777 6.625 16 6.625C10.8223 6.625 6.625 10.8223 6.625 16C6.625 21.1777 10.8223 25.375 16 25.375C19.375 25.375 20.875 23.875 20.875 23.875" stroke="#281F42" stroke-width="2" stroke-linecap="round" stroke-linejoin="round"/>
<path d="M16 19.375C17.864 19.375 19.375 17.864 19.375 16C19.375 14.136 17.864 12.625 16 12.625C14.136 12.625 12.625 14.136 12.625 16C12.625 17.864 14.136 19.375 16 19.375Z" stroke="#281F42" stroke-width="2" stroke-linecap="round" stroke-linejoin="round"/>
</svg>
