<svg width="32" height="32" viewBox="0 0 32 32" fill="none" xmlns="http://www.w3.org/2000/svg">
<path d="M13.9 8.23999C14.5883 8.07887 15.2931 7.99833 16 7.99999C23 7.99999 27 16 27 16C26.393 17.1356 25.6691 18.2047 24.84 19.19M18.12 18.12C17.8454 18.4147 17.5141 18.6511 17.1462 18.8151C16.7782 18.9791 16.3809 19.0673 15.9781 19.0744C15.5753 19.0815 15.1752 19.0074 14.8016 18.8565C14.4281 18.7056 14.0887 18.481 13.8038 18.1961C13.519 17.9113 13.2944 17.5719 13.1435 17.1984C12.9926 16.8248 12.9185 16.4247 12.9256 16.0219C12.9327 15.6191 13.0209 15.2218 13.1849 14.8538C13.3488 14.4858 13.5853 14.1546 13.88 13.88M21.94 21.94C20.2306 23.243 18.1491 23.9649 16 24C9 24 5 16 5 16C6.24389 13.6819 7.96914 11.6566 10.06 10.06L21.94 21.94Z" stroke="#281F42" stroke-width="2" stroke-linecap="round" stroke-linejoin="round"/>
<path d="M5 5L27 27" stroke="#281F42" stroke-width="2" stroke-linecap="round" stroke-linejoin="round"/>
</svg>
