<svg width="24" height="24" viewBox="0 0 24 24" fill="none" xmlns="http://www.w3.org/2000/svg">
<path d="M12 6.5C14.76 6.5 17.35 7.66 19.42 9.72L17.29 11.85C16.14 10.47 14.31 9.5 12 9.5C9.69 9.5 7.86 10.47 6.71 11.85L4.58 9.72C6.65 7.66 9.24 6.5 12 6.5ZM2.01 3.87L4.69 6.55C2.78 8.22 1.35 10.36 1 12.5C2.73 16.89 7 20 12 20C13.52 20 14.98 19.71 16.32 19.18L19.74 22.6L21.15 21.19L3.42 2.46L2.01 3.87ZM12 17.5C9.24 17.5 7 15.26 7 12.5C7 11.73 7.18 11 7.49 10.36L9.06 11.93C9.03 12.11 9 12.3 9 12.5C9 14.16 10.34 15.5 12 15.5C12.2 15.5 12.39 15.47 12.57 15.44L14.14 17.01C13.5 17.32 12.77 17.5 12 17.5ZM14.97 11.17L12.33 8.53C13.79 8.65 15 9.84 15.15 11.31L14.97 11.17Z" fill="currentColor"/>
</svg>
