<svg width="32" height="32" viewBox="0 0 32 32" fill="none" xmlns="http://www.w3.org/2000/svg">
<path d="M11.2592 21.8268H20.7407M14.8357 4.60154L6.79742 10.9843C6.26009 11.411 5.99143 11.6243 5.79788 11.8915C5.62643 12.1281 5.49871 12.3947 5.42099 12.6782C5.33325 12.9982 5.33325 13.3457 5.33325 14.0406V22.7947C5.33325 24.15 5.33325 24.8277 5.59161 25.3453C5.81886 25.8007 6.18148 26.1709 6.6275 26.4029C7.13455 26.6667 7.79831 26.6667 9.12584 26.6667H22.874C24.2015 26.6667 24.8653 26.6667 25.3723 26.4029C25.8184 26.1709 26.181 25.8007 26.4082 25.3453C26.6666 24.8277 26.6666 24.15 26.6666 22.7947V14.0406C26.6666 13.3457 26.6666 12.9982 26.5788 12.6782C26.5011 12.3947 26.3734 12.1281 26.202 11.8915C26.0084 11.6243 25.7397 11.411 25.2024 10.9843L17.1641 4.60154C16.7477 4.27091 16.5396 4.1056 16.3097 4.04205C16.1068 3.98598 15.893 3.98598 15.6902 4.04205C15.4603 4.1056 15.2521 4.27091 14.8357 4.60154Z" stroke="#281F42" stroke-width="2" stroke-linecap="round" stroke-linejoin="round"/>
</svg>
