<svg width="32" height="32" viewBox="0 0 32 32" fill="none" xmlns="http://www.w3.org/2000/svg">
<path d="M6.72651 26.6674L14.6424 18.605C15.1176 18.121 15.3552 17.879 15.6292 17.7883C15.8702 17.7085 16.1298 17.7085 16.3708 17.7883C16.6448 17.879 16.8824 18.121 17.3576 18.605L25.2207 26.6137M18.4 19.6667L21.8424 16.1606C22.3176 15.6765 22.5552 15.4345 22.8292 15.3439C23.0702 15.2641 23.3298 15.2641 23.5708 15.3439C23.8448 15.4345 24.0824 15.6765 24.5576 16.1606L28 19.6667M13.6 12.3333C13.6 13.6834 12.5255 14.7778 11.2 14.7778C9.87452 14.7778 8.8 13.6834 8.8 12.3333C8.8 10.9833 9.87452 9.88889 11.2 9.88889C12.5255 9.88889 13.6 10.9833 13.6 12.3333ZM9.76 27H22.24C24.2562 27 25.2643 27 26.0344 26.6004C26.7117 26.2488 27.2625 25.6879 27.6076 24.998C28 24.2136 28 23.1869 28 21.1333V10.8667C28 8.81314 28 7.78638 27.6076 7.00203C27.2625 6.31211 26.7117 5.75118 26.0344 5.39964C25.2643 5 24.2562 5 22.24 5H9.76C7.74381 5 6.73572 5 5.96563 5.39964C5.28825 5.75118 4.73752 6.31211 4.39238 7.00203C4 7.78638 4 8.81314 4 10.8667V21.1333C4 23.1869 4 24.2136 4.39238 24.998C4.73752 25.6879 5.28825 26.2488 5.96563 26.6004C6.73572 27 7.74381 27 9.76 27Z" stroke="#281F42" stroke-width="2" stroke-linecap="round" stroke-linejoin="round"/>
</svg>
