<svg width="32" height="32" viewBox="0 0 32 32" fill="none" xmlns="http://www.w3.org/2000/svg">
<path d="M16 25C20.9706 25 25 20.9706 25 16C25 11.0294 20.9706 7 16 7C11.0294 7 7 11.0294 7 16C7 20.9706 11.0294 25 16 25Z" stroke="#281F42" stroke-width="2" stroke-linecap="round" stroke-linejoin="round"/>
<path d="M16 20.5H16.009" stroke="#281F42" stroke-width="2" stroke-linecap="round" stroke-linejoin="round"/>
<path d="M13.3809 13.3C13.5925 12.6985 14.0101 12.1913 14.5598 11.8682C15.1095 11.5451 15.7559 11.427 16.3843 11.5348C17.0128 11.6426 17.5828 11.9694 17.9934 12.4572C18.4041 12.945 18.6288 13.5624 18.6279 14.2C18.6279 16 15.9279 16.9 15.9279 16.9" stroke="#281F42" stroke-width="2" stroke-linecap="round" stroke-linejoin="round"/>
</svg>
