<svg width="32" height="32" viewBox="0 0 32 32" fill="none" xmlns="http://www.w3.org/2000/svg">
<path d="M9 18.2864C7.14864 19.1031 6 20.2412 6 21.5C6 23.9853 10.4772 26 16 26C21.5228 26 26 23.9853 26 21.5C26 20.2412 24.8514 19.1031 23 18.2864M22 12C22 16.0637 17.5 18 16 21C14.5 18 10 16.0637 10 12C10 8.68629 12.6863 6 16 6C19.3137 6 22 8.68629 22 12ZM17 12C17 12.5523 16.5523 13 16 13C15.4477 13 15 12.5523 15 12C15 11.4477 15.4477 11 16 11C16.5523 11 17 11.4477 17 12Z" stroke="#281F42" stroke-width="2" stroke-linecap="round" stroke-linejoin="round"/>
</svg>
