<svg width="32" height="32" viewBox="0 0 32 32" fill="none" xmlns="http://www.w3.org/2000/svg">
<path d="M15.9999 17.3334C16.7363 17.3334 17.3333 16.7364 17.3333 16C17.3333 15.2636 16.7363 14.6667 15.9999 14.6667C15.2635 14.6667 14.6666 15.2636 14.6666 16C14.6666 16.7364 15.2635 17.3334 15.9999 17.3334Z" fill="#281F42"/>
<path d="M25.3333 17.3334C26.0696 17.3334 26.6666 16.7364 26.6666 16C26.6666 15.2636 26.0696 14.6667 25.3333 14.6667C24.5969 14.6667 23.9999 15.2636 23.9999 16C23.9999 16.7364 24.5969 17.3334 25.3333 17.3334Z" fill="#281F42"/>
<path d="M6.66659 17.3334C7.40296 17.3334 7.99992 16.7364 7.99992 16C7.99992 15.2636 7.40296 14.6667 6.66659 14.6667C5.93021 14.6667 5.33325 15.2636 5.33325 16C5.33325 16.7364 5.93021 17.3334 6.66659 17.3334Z" fill="#281F42"/>
<path d="M15.9999 17.3334C16.7363 17.3334 17.3333 16.7364 17.3333 16C17.3333 15.2636 16.7363 14.6667 15.9999 14.6667C15.2635 14.6667 14.6666 15.2636 14.6666 16C14.6666 16.7364 15.2635 17.3334 15.9999 17.3334Z" stroke="#281F42" stroke-width="1.5" stroke-linecap="round" stroke-linejoin="round"/>
<path d="M25.3333 17.3334C26.0696 17.3334 26.6666 16.7364 26.6666 16C26.6666 15.2636 26.0696 14.6667 25.3333 14.6667C24.5969 14.6667 23.9999 15.2636 23.9999 16C23.9999 16.7364 24.5969 17.3334 25.3333 17.3334Z" stroke="#281F42" stroke-width="1.5" stroke-linecap="round" stroke-linejoin="round"/>
<path d="M6.66659 17.3334C7.40296 17.3334 7.99992 16.7364 7.99992 16C7.99992 15.2636 7.40296 14.6667 6.66659 14.6667C5.93021 14.6667 5.33325 15.2636 5.33325 16C5.33325 16.7364 5.93021 17.3334 6.66659 17.3334Z" stroke="#281F42" stroke-width="1.5" stroke-linecap="round" stroke-linejoin="round"/>
</svg>
