<svg width="32" height="32" viewBox="0 0 32 32" fill="none" xmlns="http://www.w3.org/2000/svg">
<path d="M16.4999 13.5C19.4999 17 18.4999 20.5 12.9999 25.5H14.9999M25.9999 11.9998C14.9999 7.99993 17.9999 16.5 9.49992 15.0002L8.55083 11.4585M18.9999 11.5C21.4999 15 22.9999 17.5 21.9999 25.5H23.9999M8.55083 11.4585C9.51679 11.1997 10.1376 9.65293 9.70626 8.04306C9.2749 6.43318 8.13643 6.04805 7.17054 6.30686C6.20465 6.56567 5.41125 7.46867 5.84259 9.07844C6.27392 10.6882 7.58486 11.7173 8.55083 11.4585ZM17.4999 7.99996C17.4999 9.10453 16.6044 9.99998 15.4999 10C14.3953 10 13.4999 9.10461 13.4999 8.00004C13.4999 6.89547 14.3954 6.00002 15.5 6C16.6045 5.99998 17.4999 6.89539 17.4999 7.99996Z" stroke="#281F42" stroke-width="2" stroke-linecap="round" stroke-linejoin="round"/>
</svg>
