<svg width="24" height="24" viewBox="0 0 24 24" fill="none" xmlns="http://www.w3.org/2000/svg">
<path d="M12.625 11.25H8.125M9.625 14.25H8.125M14.125 8.25H8.125M17.125 10.5V8.1C17.125 6.83988 17.125 6.20982 16.8798 5.72852C16.664 5.30516 16.3198 4.96095 15.8965 4.74524C15.4152 4.5 14.7851 4.5 13.525 4.5H8.725C7.46488 4.5 6.83482 4.5 6.35352 4.74524C5.93016 4.96095 5.58595 5.30516 5.37024 5.72852C5.125 6.20982 5.125 6.83988 5.125 8.1V15.9C5.125 17.1601 5.125 17.7902 5.37024 18.2715C5.58595 18.6948 5.93016 19.039 6.35352 19.2548C6.83482 19.5 7.46488 19.5 8.725 19.5H11.5M15.625 18.75C15.625 18.75 17.875 17.6776 17.875 16.0689V14.1922L16.2343 13.6059C15.8401 13.4647 15.409 13.4647 15.0148 13.6059L13.375 14.1922V16.0689C13.375 17.6776 15.625 18.75 15.625 18.75Z" stroke="#281F42" stroke-width="1.5" stroke-linecap="round" stroke-linejoin="round"/>
</svg>
