<svg width="31" height="61" viewBox="0 0 31 61" fill="none" xmlns="http://www.w3.org/2000/svg">
<rect x="3.89453" y="18.4473" width="24" height="24" rx="12" fill="#CB664D"/>
<line x1="0.447318" y1="60.2237" x2="30.4473" y2="0.223664" stroke="#CB664D"/>
<path d="M18.9962 34.5156C18.3258 34.5156 17.7205 34.4082 17.1803 34.1934C16.6466 33.9722 16.1942 33.663 15.8232 33.266L17.0436 32.0066C17.714 32.6249 18.4169 32.934 19.1524 32.934C19.3802 32.934 19.5657 32.8885 19.7089 32.7973C19.8521 32.7062 19.9237 32.5826 19.9237 32.4264C19.9237 32.3613 19.9074 32.3027 19.8749 32.2506C19.8488 32.192 19.7935 32.1367 19.7089 32.0847C19.6243 32.0261 19.5071 31.9642 19.3574 31.8992C19.2142 31.8276 19.0222 31.7462 18.7814 31.6551C18.508 31.5509 18.2607 31.4436 18.0394 31.3329C17.8246 31.2158 17.6391 31.0856 17.4829 30.9424C17.3332 30.7927 17.2161 30.6235 17.1315 30.4347C17.0469 30.246 17.0046 30.0247 17.0046 29.7708C17.0046 29.4324 17.0762 29.12 17.2193 28.8336C17.369 28.5472 17.5708 28.3031 17.8246 28.1014C18.085 27.8931 18.3909 27.7336 18.7424 27.623C19.1003 27.5058 19.4876 27.4473 19.9041 27.4473C20.5094 27.4473 21.0432 27.5384 21.5053 27.7206C21.9739 27.9029 22.3742 28.1502 22.7061 28.4626L21.5346 29.7708C21.2742 29.543 20.9943 29.3608 20.6949 29.2241C20.4021 29.0874 20.0799 29.0191 19.7284 29.0191C19.5006 29.0191 19.3184 29.0679 19.1817 29.1655C19.0515 29.2567 18.9864 29.3706 18.9864 29.5072C18.9864 29.5788 19.0027 29.6407 19.0352 29.6927C19.0678 29.7383 19.1231 29.7871 19.2012 29.8392C19.2858 29.8913 19.403 29.9498 19.5527 30.0149C19.7024 30.08 19.8944 30.1581 20.1287 30.2492C20.389 30.3469 20.6266 30.4542 20.8414 30.5714C21.0627 30.6886 21.2514 30.822 21.4076 30.9717C21.5638 31.1149 21.6843 31.2841 21.7689 31.4794C21.86 31.6746 21.9055 31.8992 21.9055 32.153C21.9055 32.5045 21.834 32.8266 21.6908 33.1195C21.5476 33.4059 21.3458 33.6532 21.0855 33.8615C20.8316 34.0698 20.5257 34.2325 20.1677 34.3497C19.8098 34.4603 19.4193 34.5156 18.9962 34.5156Z" fill="white"/>
<path d="M9.89453 27.5645H11.9643L12.345 31.8601L15.0298 27.5645H17.1679L12.5696 34.4473H10.8025L9.89453 27.5645Z" fill="white"/>
</svg>
