<svg width="32" height="32" viewBox="0 0 32 32" fill="none" xmlns="http://www.w3.org/2000/svg">
<path d="M17.75 7.24258V10.9601C17.75 11.4641 17.75 11.7161 17.8454 11.9087C17.9293 12.078 18.0631 12.2157 18.2278 12.302C18.4149 12.4001 18.66 12.4001 19.15 12.4001H22.7642M19.5 16.9H12.5M19.5 20.5H12.5M14.25 13.3H12.5M17.75 7H13.2C11.7299 7 10.9948 7 10.4333 7.29428C9.93935 7.55314 9.53778 7.96619 9.28611 8.47423C9 9.05179 9 9.80786 9 11.32V20.68C9 22.1921 9 22.9482 9.28611 23.5258C9.53778 24.0338 9.93935 24.4469 10.4333 24.7057C10.9948 25 11.7299 25 13.2 25H18.8C20.2701 25 21.0052 25 21.5667 24.7057C22.0607 24.4469 22.4622 24.0338 22.7139 23.5258C23 22.9482 23 22.1921 23 20.68V12.4L17.75 7Z" stroke="#281F42" stroke-width="2" stroke-linecap="round" stroke-linejoin="round"/>
</svg>
