<svg width="32" height="32" viewBox="0 0 32 32" fill="none" xmlns="http://www.w3.org/2000/svg">
<path d="M19.5556 10.6V9.88C19.5556 8.87191 19.5556 8.36786 19.3618 7.98282C19.1913 7.64413 18.9194 7.36876 18.5849 7.19619C18.2046 7 17.7068 7 16.7111 7H15.2889C14.2932 7 13.7954 7 13.4151 7.19619C13.0806 7.36876 12.8087 7.64413 12.6382 7.98282C12.4444 8.36786 12.4444 8.87191 12.4444 9.88V10.6M14.2222 15.55V20.05M17.7778 15.55V20.05M8 10.6H24M22.2222 10.6V20.68C22.2222 22.1921 22.2222 22.9482 21.9316 23.5258C21.6759 24.0338 21.268 24.4469 20.7662 24.7057C20.1958 25 19.449 25 17.9556 25H14.0444C12.551 25 11.8042 25 11.2338 24.7057C10.732 24.4469 10.3241 24.0338 10.0684 23.5258C9.77778 22.9482 9.77778 22.1921 9.77778 20.68V10.6" stroke="#281F42" stroke-width="2" stroke-linecap="round" stroke-linejoin="round"/>
</svg>
