<svg width="32" height="32" viewBox="0 0 32 32" fill="none" xmlns="http://www.w3.org/2000/svg">
<path d="M19.1901 23.7C19.1901 25.5225 17.7619 27 16 27C14.2381 27 12.8099 25.5225 12.8099 23.7M17.9104 9.66241C18.3735 9.16751 18.6584 8.49318 18.6584 7.75C18.6584 6.23122 17.4682 5 16 5C14.5318 5 13.3416 6.23122 13.3416 7.75C13.3416 8.49318 13.6265 9.16751 14.0896 9.66241M22.3803 15.12C22.3803 13.603 21.7081 12.1481 20.5115 11.0753C19.315 10.0026 17.6922 9.4 16 9.4C14.3078 9.4 12.685 10.0026 11.4885 11.0753C10.2919 12.1481 9.61973 13.603 9.61973 15.12C9.61973 17.63 9.01799 19.4656 8.26718 20.7791C7.41145 22.2762 6.98359 23.0247 7.00048 23.2035C7.01981 23.4081 7.05541 23.4726 7.21579 23.5939C7.35598 23.7 8.06029 23.7 9.46893 23.7H22.5311C23.9397 23.7 24.644 23.7 24.7842 23.5939C24.9446 23.4726 24.9802 23.4081 24.9995 23.2035C25.0164 23.0247 24.5886 22.2762 23.7328 20.7791C22.982 19.4656 22.3803 17.63 22.3803 15.12Z" stroke="#281F42" stroke-width="2" stroke-linecap="round" stroke-linejoin="round"/>
</svg>
