<svg width="32" height="32" viewBox="0 0 32 32" fill="none" xmlns="http://www.w3.org/2000/svg">
<path d="M15.5 16.6471C18.6756 16.6471 21.25 14.0398 21.25 10.8235C21.25 7.60728 18.6756 5 15.5 5C12.3244 5 9.75 7.60728 9.75 10.8235C9.75 14.0398 12.3244 16.6471 15.5 16.6471Z" fill="#11F289"/>
<path d="M4 27C6.98462 23.7939 11.0367 21.8235 15.5 21.8235C19.9633 21.8235 24.0154 23.7939 27 27M21.25 10.8235C21.25 14.0398 18.6756 16.6471 15.5 16.6471C12.3244 16.6471 9.75 14.0398 9.75 10.8235C9.75 7.60728 12.3244 5 15.5 5C18.6756 5 21.25 7.60728 21.25 10.8235Z" stroke="#281F42" stroke-width="2" stroke-linecap="round" stroke-linejoin="round"/>
</svg>
