<svg width="31" height="61" viewBox="0 0 31 61" fill="none" xmlns="http://www.w3.org/2000/svg">
<rect x="3.89444" y="18.4473" width="24" height="24" rx="12" fill="#CB664D"/>
<line x1="0.447226" y1="60.2237" x2="30.4472" y2="0.223664" stroke="#CB664D"/>
<path d="M18.996 34.5156C18.3256 34.5156 17.7203 34.4082 17.1801 34.1934C16.6464 33.9722 16.194 33.663 15.823 33.266L17.0434 32.0066C17.7138 32.6249 18.4167 32.934 19.1522 32.934C19.38 32.934 19.5655 32.8885 19.7087 32.7973C19.8519 32.7062 19.9235 32.5826 19.9235 32.4264C19.9235 32.3613 19.9072 32.3027 19.8746 32.2506C19.8486 32.192 19.7933 32.1367 19.7087 32.0847C19.6241 32.0261 19.5069 31.9642 19.3572 31.8992C19.214 31.8276 19.022 31.7462 18.7812 31.6551C18.5078 31.5509 18.2605 31.4436 18.0392 31.3329C17.8244 31.2158 17.6389 31.0856 17.4827 30.9424C17.333 30.7927 17.2159 30.6235 17.1313 30.4347C17.0466 30.246 17.0043 30.0247 17.0043 29.7708C17.0043 29.4324 17.0759 29.12 17.2191 28.8336C17.3688 28.5472 17.5706 28.3031 17.8244 28.1014C18.0848 27.8931 18.3907 27.7336 18.7421 27.623C19.1001 27.5058 19.4874 27.4473 19.9039 27.4473C20.5092 27.4473 21.0429 27.5384 21.5051 27.7206C21.9737 27.9029 22.374 28.1502 22.7059 28.4626L21.5343 29.7708C21.274 29.543 20.9941 29.3608 20.6947 29.2241C20.4018 29.0874 20.0797 29.0191 19.7282 29.0191C19.5004 29.0191 19.3182 29.0679 19.1815 29.1655C19.0513 29.2567 18.9862 29.3706 18.9862 29.5072C18.9862 29.5788 19.0025 29.6407 19.035 29.6927C19.0676 29.7383 19.1229 29.7871 19.201 29.8392C19.2856 29.8913 19.4028 29.9498 19.5525 30.0149C19.7022 30.08 19.8942 30.1581 20.1285 30.2492C20.3888 30.3469 20.6264 30.4542 20.8412 30.5714C21.0625 30.6886 21.2512 30.822 21.4074 30.9717C21.5636 31.1149 21.684 31.2841 21.7687 31.4794C21.8598 31.6746 21.9053 31.8992 21.9053 32.153C21.9053 32.5045 21.8337 32.8266 21.6905 33.1195C21.5474 33.4059 21.3456 33.6532 21.0852 33.8615C20.8314 34.0698 20.5255 34.2325 20.1675 34.3497C19.8096 34.4603 19.419 34.5156 18.996 34.5156Z" fill="white"/>
<path d="M9.89444 27.5645H11.9642L12.3449 31.8601L15.0297 27.5645H17.1678L12.5695 34.4473H10.8024L9.89444 27.5645Z" fill="white"/>
</svg>
