<svg width="24" height="24" viewBox="0 0 24 24" fill="none" xmlns="http://www.w3.org/2000/svg">
<rect width="24" height="24" rx="12" fill="#CB664D"/>
<path d="M15.1015 16.0684C14.4312 16.0684 13.8259 15.961 13.2856 15.7462C12.7519 15.5249 12.2996 15.2157 11.9286 14.8187L13.149 13.5593C13.8193 14.1776 14.5223 14.4868 15.2577 14.4868C15.4855 14.4868 15.671 14.4412 15.8142 14.3501C15.9574 14.259 16.029 14.1353 16.029 13.9791C16.029 13.914 16.0127 13.8554 15.9802 13.8034C15.9542 13.7448 15.8988 13.6895 15.8142 13.6374C15.7296 13.5788 15.6125 13.517 15.4628 13.4519C15.3196 13.3803 15.1276 13.2989 14.8868 13.2078C14.6134 13.1037 14.3661 12.9963 14.1448 12.8856C13.93 12.7685 13.7445 12.6383 13.5883 12.4951C13.4386 12.3454 13.3214 12.1762 13.2368 11.9875C13.1522 11.7987 13.1099 11.5774 13.1099 11.3236C13.1099 10.9851 13.1815 10.6727 13.3247 10.3863C13.4744 10.1 13.6762 9.85588 13.93 9.65412C14.1903 9.44584 14.4962 9.28638 14.8477 9.17573C15.2057 9.05858 15.5929 9 16.0095 9C16.6148 9 17.1485 9.09112 17.6106 9.27336C18.0792 9.4556 18.4795 9.70293 18.8115 10.0153L17.6399 11.3236C17.3796 11.0958 17.0997 10.9135 16.8003 10.7769C16.5074 10.6402 16.1852 10.5718 15.8338 10.5718C15.606 10.5718 15.4237 10.6206 15.287 10.7183C15.1569 10.8094 15.0918 10.9233 15.0918 11.06C15.0918 11.1316 15.108 11.1934 15.1406 11.2455C15.1731 11.291 15.2285 11.3398 15.3066 11.3919C15.3912 11.444 15.5083 11.5026 15.658 11.5676C15.8077 11.6327 15.9997 11.7108 16.234 11.802C16.4944 11.8996 16.7319 12.007 16.9467 12.1241C17.168 12.2413 17.3568 12.3747 17.513 12.5244C17.6692 12.6676 17.7896 12.8368 17.8742 13.0321C17.9653 13.2273 18.0109 13.4519 18.0109 13.7057C18.0109 14.0572 17.9393 14.3794 17.7961 14.6723C17.6529 14.9586 17.4512 15.206 17.1908 15.4142C16.937 15.6225 16.6311 15.7852 16.2731 15.9024C15.9151 16.013 15.5246 16.0684 15.1015 16.0684Z" fill="white"/>
<path d="M6 9.11719H8.06974L8.45049 13.4129L11.1353 9.11719H13.2734L8.67504 16.0001H6.90795L6 9.11719Z" fill="white"/>
</svg>
