<svg width="32" height="32" viewBox="0 0 32 32" fill="none" xmlns="http://www.w3.org/2000/svg">
<path d="M14.3633 6.95728L6.25653 21.017C6.08938 21.3177 6.00094 21.6587 6.00001 22.0059C5.99907 22.3531 6.08567 22.6946 6.25119 22.9963C6.41671 23.2979 6.65538 23.5493 6.94346 23.7254C7.23153 23.9015 7.55897 23.9962 7.8932 24H24.1068C24.441 23.9962 24.7685 23.9015 25.0565 23.7254C25.3446 23.5493 25.5833 23.2979 25.7488 22.9963C25.9143 22.6946 26.0009 22.3531 26 22.0059C25.9991 21.6587 25.9106 21.3177 25.7435 21.017L17.6367 6.95728C17.466 6.66505 17.2258 6.42345 16.9391 6.25577C16.6524 6.08809 16.329 6 16 6C15.671 6 15.3476 6.08809 15.0609 6.25577C14.7742 6.42345 14.534 6.66505 14.3633 6.95728V6.95728Z" stroke="#281F42" stroke-width="2" stroke-linecap="round" stroke-linejoin="round"/>
<path d="M16 13.1027V17.1027" stroke="#281F42" stroke-width="2" stroke-linecap="round" stroke-linejoin="round"/>
<path d="M16 20H16.01" stroke="#281F42" stroke-width="2" stroke-linecap="round" stroke-linejoin="round"/>
</svg>
